# AST/ASF file generated using VICON BodyLanguage
# -----------------------------------------------
:version 1.10
:name VICON
:units
  mass 1.0
  length 0.45
  angle deg
:documentation
   .ast/.asf automatically generated from VICON data using
   VICON BodyBuilder and BodyLanguage model FoxedUp or BRILLIANT.MOD
:root
   order TX TY TZ RX RY RZ
   axis XYZ
   position 0 0 0  
   orientation 0 0 0 
:bonedata
  begin
     id 1 
     name lhipjoint
     direction 0.707368 -0.647095 0.284426 
     length 2.60678 
     axis 0 0 0  XYZ
  end
  begin
     id 2 
     name lfemur
     direction 0.34202 -0.939693 0  
     length 6.63812  
     axis 0 0 20  XYZ
    dof rx ry rz
    limits (-160.0 20.0)
           (-70.0 70.0)
           (-60.0 70.0)
  end
  begin
     id 3 
     name ltibia
     direction 0.34202 -0.939693 0   
     length 7.51178   
     axis 0 0 20   XYZ
    dof rx
    limits (-10.0 170.0)
  end
  begin
     id 4 
     name lfoot
     direction 0.121251 -0.333133 0.935051   
     length 1.83716   
     axis -90 7.62852e-016 20   XYZ
    dof rx rz
    limits (-45.0 90.0)
           (-70.0 20.0)
  end
  begin
     id 5 
     name ltoes
     direction 1.53611e-011 -4.21962e-011 1   
     length 0.916133   
     axis -90 7.62852e-016 20   XYZ
    dof rx
    limits (-90.0 20.0)
  end
  begin
     id 6 
     name rhipjoint
     direction -0.692419 -0.660507 0.290321   
     length 2.55385  
     axis 0 0 0  XYZ 
  end
  begin
     id 7 
     name rfemur
     direction -0.34202 -0.939693 0   
     length 7.29079   
     axis 0 0 -20   XYZ
    dof rx ry rz
    limits (-160.0 20.0)
           (-70.0 70.0)
           (-70.0 60.0)
  end
  begin
     id 8 
     name rtibia
     direction -0.34202 -0.939693 0   
     length 7.47143   
     axis 0 0 -20   XYZ
    dof rx
    limits (-10.0 170.0)
 end
 begin
     id 9 
     name rfoot
     direction -0.119907 -0.329441 0.936532   
     length 1.79439  
     axis -90 -7.62852e-016 -20   XYZ
    dof rx rz
    limits (-45.0 90.0)
           (-20.0 70.0)
  end
  begin
     id 10 
     name rtoes
     direction -1.53571e-011 -4.21961e-011 1   
     length 0.896039   
     axis -90 -7.62852e-016 -20   XYZ
    dof rx
    limits (-90.0 20.0)
  end
  begin
     id 11 
     name lowerback
     direction 0.0367721 0.992912 -0.113016   
     length 1.73542   
     axis 0 0 0   XYZ
    dof rx ry rz
    limits (-20.0 45.0)
           (-30.0 30.0)
           (-30.0 30.0)
  end
  begin
     id 12 
     name upperback
     direction -0.000314626 0.990678 0.136227   
     length 1.7514   
     axis 0 0 0   XYZ
    dof rx ry rz
    limits (-20.0 45.0)
           (-30.0 30.0)
           (-30.0 30.0)
  end
  begin
     id 13 
     name thorax
     direction -0.0226159 0.981151 0.191917   
     length 1.71471   
     axis 0 0 0   XYZ
    dof rx ry rz
    limits (-20.0 45.0)
           (-30.0 30.0)
           (-30.0 30.0)
  end
  begin
     id 14 
     name lowerneck
     direction 0.0219333 0.998071 0.0580739   
     length 1.65882   
     axis 0 0 0   XYZ
    dof rx ry rz
    limits (-20.0 45.0)
           (-30.0 30.0)
           (-30.0 30.0)
  end
  begin
     id 15 
     name upperneck
     direction 0.0384529 0.980058 -0.194957   
     length 1.6612   
     axis 0 0 0   XYZ
    dof rx ry rz
    limits (-20.0 45.0)
           (-30.0 30.0)
           (-30.0 30.0)
  end
  begin
     id 16
     name head
     direction 0.00592123 0.997421 -0.0715234  
     length 1.68077  
     axis 0 0 0   XYZ
    dof rx ry rz
    limits (-20.0 45.0)
           (-30.0 30.0)
           (-30.0 30.0)
  end
  begin
     id 17 
     name lclavicle
     direction 0.904803 0.417826 0.0821728  
     length 3.42227  
     axis 0 0 0   XYZ
    dof ry rz
    limits (-20.0 10.0)
           (0.0 20.0)
  end
  begin
     id 18 
     name lhumerus
     direction 1 -4.48965e-011 -2.68786e-027   
     length 5.11878   
     axis -180 -30 -90   XYZ
    dof rx ry rz
    limits (-60.0 90.0)
           (-90.0 90.0)
           (-90.0 90.0)
  end
  begin
     id 19
     name lradius
     direction 1 -4.48965e-011 2.61168e-028   
     length 3.59971   
     axis -180 -30 -90   XYZ
    dof rx
    limits (-10.0 170.0)
  end
  begin
     id 20
     name lwrist
     direction 1 -4.48965e-011 1.58672e-027   
     length 1.79985   
     axis -1.65735e-015 90 90   XYZ
    dof ry
    limits (-180.0 0.0)
 end
  begin
     id 21 
     name lhand
     direction 1 -4.48942e-011 3.17344e-027   
     length 0.62877   
     axis -2.02492e-015 90 90   XYZ
    dof rx rz
    limits (-90.0 90.0)
           (-45.0 45.0)
  end
  begin
     id 22 
     name lfingers
     direction 1 -4.49011e-011 6.34687e-027   
     length 0.506931   
     axis -4.04985e-015 90 90   XYZ
    dof rx
    limits (0.0 90.0)
  end
  begin
     id 23
     name lthumb
     direction 0.707107 -6.34982e-011 0.707107   
     length 0.727854   
     axis -90 45 2.85299e-015   XYZ
    dof rx rz
    limits (-45.0 45.0)
           (-45.0 45.0)
  end
  begin
     id 24 
     name rclavicle
     direction -0.945647 0.32488 0.0143075   
     length 3.52737  
     axis 0 0 0   XYZ 
    dof ry rz
    limits (-10.0 20.0)
           (-20.0 0.0)
  end
  begin
     id 25 
     name rhumerus
     direction -1 -4.48962e-011 1.92182e-027  
     length 5.4902   
     axis -180 30 90   XYZ
    dof rx ry rz
    limits (-90.0 60.0)
           (-90.0 90.0)
           (-90.0 90.0)
  end
  begin
     id 26 
     name rradius
     direction -1 -4.48967e-011 -5.97193e-028   
     length 3.20659   
     axis -180 30 90   XYZ
    dof rx
    limits (-10.0 170.0)
  end
  begin
     id 27 
     name rwrist
     direction -1 -4.48964e-011 1.58672e-027   
     length 1.6033   
     axis -1.65735e-015 -90 -90   XYZ
    dof ry
    limits (-180.0 0.0)
  end
  begin
     id 28
     name rhand
     direction -1 -4.49006e-011 3.17344e-027   
     length 0.691885   
     axis -2.02492e-015 -90 -90   XYZ
    dof rx rz
    limits (-90.0 90.0)
           (-45.0 45.0)
  end
  begin
     id 29
     name rfingers
     direction -1 -4.48908e-011 6.34687e-027   
     length 0.557815   
     axis -4.04985e-015 -90 -90   XYZ
    dof rx
    limits (0.0 90.0)
  end
  begin
     id 30
     name rthumb
     direction -0.707107 -6.34999e-011 0.707107   
     length 0.800915   
     axis -90 -45 -2.85299e-015   XYZ
    dof rx rz
    limits (-45.0 45.0)
           (-45.0 45.0)
  end
:hierarchy
  begin
    root lhipjoint rhipjoint lowerback
    lhipjoint lfemur
    lfemur ltibia
    ltibia lfoot
    lfoot ltoes
    rhipjoint rfemur
    rfemur rtibia
    rtibia rfoot
    rfoot rtoes
    lowerback upperback
    upperback thorax
    thorax lowerneck lclavicle rclavicle
    lowerneck upperneck
    upperneck head
    lclavicle lhumerus
    lhumerus lradius
    lradius lwrist
    lwrist lhand lthumb
    lhand lfingers
    rclavicle rhumerus
    rhumerus rradius
    rradius rwrist
    rwrist rhand rthumb
    rhand rfingers
  end

#!OML:ASF I:\Actors\actors\Patient Classification 1\Patient 1\Session 1\Subject1.ASF
:FULLY-SPECIFIED
:DEGREES
61
root 0.537636 17.4496 9.08147 10.4009 -3.67231 -9.21366
lowerback -0.532227 0.55078 6.0505
upperback -8.73657 1.17634 2.45598
thorax -8.87189 0.228619 -0.856543
lowerneck -6.79956 -8.46011 -8.53509
upperneck 20.5391 -12.7766 10.12
head 8.71613 -5.85428 3.49765
rclavicle -1.28713e-014 -9.93923e-016
rhumerus -47.0709 -29.5129 -64.1531
rradius 19.3919
rwrist 54.4993
rhand 3.68598 -29.7017
rfingers 7.12502
rthumb 29.1159 -57.4455
lclavicle -1.28713e-014 -9.93923e-016
lhumerus -50.051 24.8234 68.5029
lradius 21.3258
lwrist -27.0732
lhand -18.7613 -11.8003
lfingers 7.12502
lthumb 7.53553 18.0455
rfemur -5.24006 25.4651 25.4098
rtibia 1.72024
rfoot -11.062 -25.741
rtoes 2.99084
lfemur 6.30505 -50.0513 -12.8029
ltibia -4.82142
lfoot -38.0572 58.2939
ltoes 21.578
62
root 0.539055 17.4501 9.08422 10.4671 -3.65545 -9.24589
lowerback -0.572294 0.546841 6.09674
upperback -8.77759 1.17223 2.46139
thorax -8.89437 0.222157 -0.875335
lowerneck -6.84611 -8.43613 -8.55005
upperneck 20.6187 -12.7649 10.1986
head 8.75706 -5.83969 3.52634
rclavicle 2.5842e-015 -2.127e-014
rhumerus -47.078 -29.4488 -64.1614
rradius 19.3494
rwrist 54.4662
rhand 3.77565 -29.7235
rfingers 7.12502
rthumb 29.2015 -57.4524
lclavicle 2.5842e-015 -2.127e-014
lhumerus -50.1086 24.8499 68.4388
lradius 21.3133
lwrist -27.0936
lhand -18.8165 -11.8258
lfingers 7.12502
lthumb 7.48227 18.0219
rfemur -5.28809 25.5279 25.4137
rtibia 1.69132
rfoot -11.1346 -25.7949
rtoes 3.40572
lfemur 6.23951 -50.1594 -12.7167
ltibia -4.82038
lfoot -38.3929 58.2739
ltoes 21.9556
63
root 0.540307 17.4501 9.08646 10.5148 -3.62655 -9.28556
lowerback -0.589338 0.546695 6.15589
upperback -8.81031 1.17553 2.46851
thorax -8.92083 0.218473 -0.900258
lowerneck -6.8357 -8.40751 -8.59249
upperneck 20.6276 -12.7426 10.2969
head 8.76546 -5.82391 3.56982
rclavicle -9.21864e-015 2.0276e-014
rhumerus -47.1302 -29.4544 -64.1001
rradius 19.3374
rwrist 54.5251
rhand 3.81895 -29.673
rfingers 7.12502
rthumb 29.2428 -57.3947
lclavicle -9.21864e-015 2.0276e-014
lhumerus -50.1494 24.9141 68.3612
lradius 21.2788
lwrist -27.1883
lhand -18.7773 -11.8611
lfingers 7.12502
lthumb 7.52011 17.9852
rfemur -5.3293 25.4979 25.4391
rtibia 1.68192
rfoot -11.1108 -25.8062
rtoes 3.40021
lfemur 6.17446 -50.2338 -12.6197
ltibia -4.81591
lfoot -38.7047 58.2456
ltoes 22.1665
64
root 0.541385 17.4497 9.08882 10.5411 -3.61606 -9.27455
lowerback -0.59716 0.558616 6.16398
upperback -8.8271 1.19158 2.45866
thorax -8.93373 0.224757 -0.91605
lowerneck -6.81114 -8.40667 -8.607
upperneck 20.5593 -12.7398 10.3265
head 8.74036 -5.82328 3.58342
rclavicle 1.08089e-014 1.25234e-014
rhumerus -47.1679 -29.4677 -64.0629
rradius 19.3537
rwrist 54.5185
rhand 3.80891 -29.6977
rfingers 7.12502
rthumb 29.2332 -57.4211
lclavicle 1.08089e-014 1.25234e-014
lhumerus -50.1313 24.9444 68.3209
lradius 21.2117
lwrist -27.2898
lhand -18.7307 -11.8916
lfingers 7.12502
lthumb 7.56508 17.9531
rfemur -5.35424 25.4645 25.4124
rtibia 1.68367
rfoot -11.0771 -25.8027
rtoes 3.12732
lfemur 6.15041 -50.3 -12.6221
ltibia -4.80809
lfoot -38.8968 58.2668
ltoes 22.1592
65
root 0.542154 17.4493 9.09105 10.5762 -3.62395 -9.21172
lowerback -0.611387 0.579931 6.11757
upperback -8.85011 1.21583 2.42321
thorax -8.94858 0.237924 -0.929279
lowerneck -6.78327 -8.42912 -8.56484
upperneck 20.4616 -12.7614 10.2965
head 8.69934 -5.83593 3.56466
rclavicle 8.4732e-015 2.10712e-014
rhumerus -47.2021 -29.4352 -64.0911
rradius 19.397
rwrist 54.3983
rhand 3.8578 -29.7961
rfingers 7.12502
rthumb 29.2799 -57.5114
lclavicle 8.4732e-015 2.10712e-014
lhumerus -50.061 24.8737 68.3605
lradius 21.1512
lwrist -27.283
lhand -18.7857 -11.9367
lfingers 7.12502
lthumb 7.51201 17.9099
rfemur -5.39337 25.472 25.3134
rtibia 1.67935
rfoot -11.0579 -25.8164
rtoes 2.95622
lfemur 6.12326 -50.4015 -12.6919
ltibia -4.78914
lfoot -39.0807 58.3163
ltoes 22.2276
66
root 0.542573 17.4497 9.09205 10.612 -3.62934 -9.15089
lowerback -0.601809 0.586779 6.06757
upperback -8.88291 1.22339 2.39296
thorax -8.98969 0.242564 -0.93396
lowerneck -6.77345 -8.43647 -8.57305
upperneck 20.4344 -12.7748 10.3249
head 8.69227 -5.84133 3.57425
rclavicle -1.39398e-014 -3.22031e-014
rhumerus -47.2505 -29.3595 -64.1462
rradius 19.4586
rwrist 54.3176
rhand 3.96204 -29.8612
rfingers 7.12502
rthumb 29.3795 -57.559
lclavicle -1.39398e-014 -3.22031e-014
lhumerus -50.0069 24.7618 68.4443
lradius 21.1455
lwrist -27.1757
lhand -18.8486 -11.9448
lfingers 7.12502
lthumb 7.45132 17.904
rfemur -5.43162 25.5138 25.2218
rtibia 1.67064
rfoot -11.0127 -25.8676
rtoes 2.84409
lfemur 6.07326 -50.4935 -12.7358
ltibia -4.76407
lfoot -39.4091 58.2973
ltoes 22.5765
67
root 0.54365 17.4509 9.09246 10.6519 -3.6275 -9.13073
lowerback -0.59335 0.572867 6.04676
upperback -8.91372 1.20613 2.39279
thorax -9.03024 0.234153 -0.921156
lowerneck -6.75726 -8.42153 -8.60389
upperneck 20.4069 -12.7609 10.3837
head 8.68459 -5.83316 3.60149
rclavicle -1.68967e-015 -3.77691e-015
rhumerus -47.2443 -29.2125 -64.2473
rradius 19.5074
rwrist 54.2533
rhand 4.03968 -29.8857
rfingers 7.12502
rthumb 29.4536 -57.5705
lclavicle -1.68967e-015 -3.77691e-015
lhumerus -50.0031 24.6833 68.5066
lradius 21.1834
lwrist -27.0331
lhand -18.8579 -11.9484
lfingers 7.12502
lthumb 7.44228 17.9007
rfemur -5.46386 25.5911 25.18
rtibia 1.6532
rfoot -11.024 -25.949
rtoes 2.94528
lfemur 6.00549 -50.5294 -12.7101
ltibia -4.75418
lfoot -39.5887 58.2737
ltoes 22.7987
